<?xml version="1.0" encoding="UTF-8"?>
<svg version="1.1" xmlns="http://www.w3.org/2000/svg" width="496" height="567">
<path d="M0 0 C1.1446875 0.63421875 2.289375 1.2684375 3.46875 1.921875 C4.12633301 2.27757568 4.78391602 2.63327637 5.46142578 2.99975586 C7.64806847 4.19484038 9.80806672 5.43054127 11.96875 6.671875 C13.55940773 7.56467227 15.15057138 8.45656864 16.7421875 9.34765625 C21.19670353 11.85865105 25.62531547 14.41253302 30.04833984 16.97851562 C33.08782281 18.74091772 36.13128896 20.49626672 39.17578125 22.25 C46.85680341 26.67534271 54.53314125 31.10878171 62.20849609 35.54394531 C73.89517662 42.29672375 85.59022926 49.0337465 97.31506348 55.72003174 C107.58579887 61.57719156 117.82662202 67.48243482 128.03173828 73.45336914 C135.32803948 77.72093712 142.6440065 81.95333112 149.96875 86.171875 C162.32847796 93.29357269 174.66215249 100.45874284 186.96875 107.671875 C187.8963916 108.21553711 188.8240332 108.75919922 189.77978516 109.31933594 C200.40564824 115.55442388 210.99020476 121.85688003 221.53125 128.234375 C222.5013501 128.81832031 223.4714502 129.40226563 224.47094727 130.00390625 C225.37901123 130.555625 226.2870752 131.10734375 227.22265625 131.67578125 C228.02002197 132.15861572 228.8173877 132.6414502 229.63891602 133.13891602 C230.40776123 133.64479248 231.17660645 134.15066895 231.96875 134.671875 C232.82940158 135.12728291 233.69005316 135.58269081 234.57678509 136.05189896 C238.40321841 140.24308235 237.64174485 144.64424289 237.57002258 150.12445068 C237.57429471 151.30801502 237.57856683 152.49157935 237.58296841 153.71100926 C237.58978786 156.99758122 237.57413746 160.28266888 237.54907811 163.56906152 C237.52750631 167.11230977 237.53479119 170.65551133 237.53858948 174.19880676 C237.54121256 180.33812091 237.52551158 186.47716957 237.49740028 192.61641693 C237.4567826 201.49271512 237.44374487 210.36888481 237.43746033 219.24526587 C237.4265144 233.64616801 237.39323217 248.04692862 237.34594727 262.44775391 C237.30005936 276.43765555 237.2646637 290.42751877 237.2434082 304.41748047 C237.24209459 305.2796713 237.24078097 306.14186212 237.23942754 307.03017995 C237.23290241 311.35549376 237.22658385 315.68080785 237.22036803 320.00612211 C237.16852574 355.89480634 237.08045239 391.78332966 236.96875 427.671875 C236.39545708 427.98638013 235.82216415 428.30088526 235.23149872 428.62492085 C232.60645661 430.06547292 229.98193573 431.50697208 227.35742188 432.94848633 C226.45562195 433.44318672 225.55382202 433.93788712 224.62469482 434.44757843 C218.17941815 437.98885738 211.7992891 441.61646724 205.46875 445.359375 C196.67058011 450.52627923 187.83459615 455.62239139 178.96875 460.671875 C170.27448349 465.6252159 161.60371664 470.61557101 152.96875 475.671875 C143.74074471 481.0754396 134.4688033 486.39839861 125.17773438 491.69238281 C117.08130867 496.30690304 109.01068491 500.96282755 100.96875 505.671875 C91.74051619 511.0755734 82.46932076 516.40050554 73.17672729 521.69238281 C66.07166989 525.73918218 58.98804952 529.81877749 51.93896484 533.96264648 C41.98151532 539.8158878 31.95118111 545.52036194 21.84375 551.109375 C21.24990509 551.43881104 20.65606018 551.76824707 20.04421997 552.10766602 C16.03628593 554.32849569 12.00642538 556.50569357 7.96875 558.671875 C7.36824829 559.00455383 6.76774658 559.33723267 6.14904785 559.67999268 C-8.00759247 567.51109624 -8.00759247 567.51109624 -15.03125 565.671875 C-18.52511972 564.29775711 -21.67904827 562.51854604 -24.90625 560.609375 C-26.85281255 559.50251265 -28.79942964 558.39574621 -30.74609375 557.2890625 C-31.76687012 556.69963867 -32.78764648 556.11021484 -33.83935547 555.50292969 C-38.21456493 552.99305735 -42.63079282 550.56010704 -47.04711914 548.12353516 C-76.43219577 531.89936656 -105.54386674 515.17792508 -134.60546875 498.3828125 C-138.89643479 495.9030659 -143.19082836 493.42942456 -147.48828125 490.9609375 C-159.68079676 483.95267738 -171.81706896 476.85909795 -183.90136719 469.66577148 C-191.8003656 464.97137543 -199.7473792 460.36709668 -207.71875 455.796875 C-216.59845107 450.69733511 -225.36745062 445.47968939 -233.99316406 439.96240234 C-236.35565211 438.46646178 -238.7356091 437.00050451 -241.1171875 435.53515625 C-242.85939161 434.45575597 -244.60157933 433.37632925 -246.34375 432.296875 C-247.16351318 431.79647705 -247.98327637 431.2960791 -248.82788086 430.78051758 C-249.59237549 430.30380615 -250.35687012 429.82709473 -251.14453125 429.3359375 C-251.82298096 428.91779785 -252.50143066 428.4996582 -253.20043945 428.06884766 C-256.2982751 425.70509041 -257.80497294 423.35070617 -259.03125 419.671875 C-259.12577392 418.10846185 -259.16392203 416.54133103 -259.16826439 414.97506905 C-259.17333893 414.00379542 -259.17841347 413.0325218 -259.18364179 412.03181565 C-259.18413955 410.96228114 -259.18463731 409.89274664 -259.18515015 408.790802 C-259.1895324 407.656539 -259.19391465 406.522276 -259.1984297 405.35364139 C-259.21184086 401.53279705 -259.21800172 397.71197578 -259.22412109 393.89111328 C-259.23149261 391.15989909 -259.24028362 388.42868975 -259.24890137 385.69747925 C-259.27342041 377.48803988 -259.28805007 369.27859447 -259.30096143 361.06912977 C-259.30467318 358.75113165 -259.30864641 356.43313414 -259.3127141 354.11513662 C-259.33794609 339.72491203 -259.36000209 325.33468649 -259.37244225 310.94444466 C-259.37537199 307.61156333 -259.37833365 304.27868203 -259.38134766 300.94580078 C-259.38246673 299.70322651 -259.38246673 299.70322651 -259.38360842 298.43554972 C-259.39626948 285.00807815 -259.4295033 271.58073877 -259.47114949 258.15332903 C-259.51354155 244.37270779 -259.53713395 230.59215429 -259.54236281 216.81146801 C-259.54577961 209.07198707 -259.55756655 201.33271288 -259.59046555 193.59329605 C-259.61842957 187.00401268 -259.62948148 180.41497845 -259.61827008 173.82564034 C-259.61307411 170.46274101 -259.61874007 167.10078748 -259.64073563 163.73789215 C-259.66327831 160.09379264 -259.65519992 156.45101957 -259.63925171 152.80691528 C-259.6531338 151.74184222 -259.66701588 150.67676916 -259.68131864 149.57942116 C-259.60369267 142.40941172 -259.60369267 142.40941172 -256.64628029 138.59907341 C-255.78332029 137.96309793 -254.9203603 137.32712246 -254.03125 136.671875 C-252.81924927 135.69661865 -252.81924927 135.69661865 -251.58276367 134.70166016 C-244.72884254 129.72799523 -237.6600129 125.30551538 -230.34375 121.046875 C-229.15972159 120.35235134 -227.97597041 119.65735488 -226.79248047 118.96191406 C-223.78686101 117.19762701 -220.77728642 115.44021311 -217.76654053 113.68469238 C-215.06712506 112.10915511 -212.37168329 110.52685189 -209.67578125 108.9453125 C-199.52003177 102.99560322 -189.33085462 97.10685875 -179.10400391 91.28027344 C-172.06526443 87.26910537 -165.04623682 83.2244207 -158.03125 79.171875 C-150.20839552 74.65333491 -142.37874039 70.14749748 -134.53125 65.671875 C-126.82966802 61.2794221 -119.14573363 56.85717224 -111.46875 52.421875 C-99.44911179 45.47939035 -87.40222728 38.58530685 -75.34606934 31.70654297 C-70.60851713 29.00291883 -65.87460526 26.29297477 -61.14259338 23.57966614 C-58.21641118 21.90255419 -55.28790053 20.22980504 -52.35375977 18.56665039 C-46.58493066 15.29324148 -40.85295496 11.97731867 -35.171875 8.5546875 C-33.51128052 7.57459717 -33.51128052 7.57459717 -31.81713867 6.57470703 C-29.74392278 5.35084544 -27.68289559 4.10596711 -25.63793945 2.83544922 C-17.5919682 -1.85648472 -8.9281037 -3.62567392 0 0 Z M-46.15625 207.359375 C-46.83147705 207.70387695 -47.5067041 208.04837891 -48.20239258 208.40332031 C-54.06250443 211.49193738 -59.06284881 215.30041666 -64.03125 219.671875 C-64.85625 220.30867188 -65.68125 220.94546875 -66.53125 221.6015625 C-81.20843955 233.75611009 -90.42225532 254.02436934 -92.75 272.6015625 C-94.62462563 293.06622564 -88.68897654 315.93457345 -75.80761719 332.21875 C-61.10486527 349.85768623 -41.09174167 362.11244196 -18.03125 364.671875 C-1.59149221 365.71107212 14.14068754 363.08590623 28.96875 355.671875 C30.22171875 355.04539062 30.22171875 355.04539062 31.5 354.40625 C52.52239952 342.83062495 64.32851139 322.58208898 71.05859375 300.29296875 C76.2140632 279.78172334 71.86803431 258.80149054 61.71875 240.546875 C50.53881304 222.2040347 33.18306468 207.16520246 12.08984375 201.5234375 C5.7513592 200.21724076 -0.70677181 200.33674784 -7.15014648 200.35620117 C-9.32912636 200.35935384 -11.50673463 200.3358619 -13.68554688 200.31054688 C-25.32916936 200.25550857 -35.74949167 201.9278896 -46.15625 207.359375 Z " fill="#0098C7" transform="translate(259.03125,1.328125)"/>
<path d="M0 0 C5.98385821 -0.32734454 9.47274645 0.24941292 14.875 3.125 C15.54007568 3.47409424 16.20515137 3.82318848 16.89038086 4.18286133 C19.26937691 5.43874439 21.63383904 6.72010773 24 8 C26.00335482 9.06484018 28.00729749 10.12857487 30.01171875 11.19140625 C50.72115169 22.21523046 71.07134611 33.74056264 91.08276367 45.97924805 C97.06197198 49.6326992 103.05098202 53.24112744 109.1875 56.625 C150.10587056 79.24558343 150.10587056 79.24558343 157.98046875 88.26953125 C159.97058812 90.31949174 159.97058812 90.31949174 163.25 90.25 C164.1575 90.1675 165.065 90.085 166 90 C165.73783691 90.53890869 165.47567383 91.07781738 165.20556641 91.63305664 C164.00623824 94.10677045 162.81557808 96.58456373 161.625 99.0625 C161.00625 100.33383789 161.00625 100.33383789 160.375 101.63085938 C159.97539062 102.46552734 159.57578125 103.30019531 159.1640625 104.16015625 C158.79748535 104.91949463 158.4309082 105.67883301 158.05322266 106.46118164 C155.64356727 112.26971348 154.68419158 117.66114782 154.6640625 123.91796875 C154.6574057 124.65646561 154.6507489 125.39496246 154.64389038 126.15583801 C154.63382142 127.71137018 154.62907157 129.26694504 154.62939453 130.82250977 C154.62504306 133.16432657 154.58872592 135.50422143 154.55078125 137.84570312 C154.48118776 146.93915179 155.30393715 154.54132856 159 163 C159.47808105 164.11048706 159.47808105 164.11048706 159.96582031 165.2434082 C160.86264002 167.21504416 161.81591807 169.13959192 162.8125 171.0625 C163.33287842 172.07799927 163.33287842 172.07799927 163.86376953 173.11401367 C175.41734541 195.33790484 191.98122733 210.29915559 215.734375 218.25 C226.96307672 221.36653762 238.40715275 222.21132732 250 223 C250 223.33 250 223.66 250 224 C247.36 224.33 244.72 224.66 242 225 C242.00184359 225.92214106 242.00368717 226.84428211 242.00558662 227.79436684 C242.04974839 250.22836363 242.08284818 272.66235294 242.10362434 295.09638405 C242.11393849 305.94529404 242.12800151 316.79417503 242.15087891 327.64306641 C242.1708085 337.09855683 242.18371543 346.55402625 242.18817699 356.0095371 C242.19078509 361.01650237 242.19691822 366.02340753 242.21146011 371.03035355 C242.22503717 375.74328944 242.22922237 380.45614049 242.22621536 385.16909409 C242.22676547 386.89846508 242.23074217 388.62783892 242.23841095 390.35719299 C242.24837415 392.71989162 242.2459639 395.08227065 242.24050903 397.44497681 C242.24633472 398.12787045 242.2521604 398.8107641 242.25816262 399.51435149 C242.23204227 403.70555847 241.5197891 407.0996307 240 411 C228.70201162 409.61312119 218.57456045 402.23035719 209.08349609 396.32397461 C203.60480953 392.93117844 198.03977031 389.75833364 192.375 386.6875 C184.89892754 382.63116975 177.52267088 378.43094036 170.1875 374.125 C162.33002601 369.51267659 154.44273182 364.96395953 146.5 360.5 C138.73002208 356.13046309 131.00445421 351.69296864 123.3125 347.1875 C114.61352768 342.09234698 105.88268993 337.05589723 97.125 332.0625 C78.7667091 321.59255447 60.45093686 311.05040127 42.22045898 300.35913086 C36.65683692 297.10436362 31.06786623 293.90060011 25.44921875 290.7421875 C24.16578986 290.01825948 22.88242366 289.29422029 21.59912109 288.57006836 C19.12910201 287.17643737 16.65346867 285.7935619 14.17431641 284.41625977 C13.0507373 283.78260498 11.9271582 283.1489502 10.76953125 282.49609375 C9.77542236 281.94107178 8.78131348 281.3860498 7.75708008 280.81420898 C3.89534962 278.2731199 0.45484591 275.86169488 -0.671875 271.25 C-0.69765625 270.1775 -0.7234375 269.105 -0.75 268 C-0.87285078 263.08591166 -1.02907115 258.17647306 -1.23849487 253.26530457 C-2.10003282 232.38242302 -2.14849013 211.51823218 -2.1343255 190.62043786 C-2.13174163 185.59161853 -2.13415599 180.56280075 -2.13571167 175.53398132 C-2.137517 167.09337022 -2.13517138 158.65276795 -2.13037109 150.2121582 C-2.12494056 140.55388533 -2.12668904 130.89563361 -2.1321975 121.23736125 C-2.13678648 112.84480529 -2.13735108 104.45225557 -2.13475883 96.05969876 C-2.13322627 91.09141933 -2.13291634 86.12314972 -2.13629532 81.15487099 C-2.14725752 62.4103216 -2.09413158 43.67616667 -1.55419922 24.93823242 C-1.5347872 24.23934926 -1.51537518 23.54046609 -1.49537492 22.82040465 C-1.27636002 15.17524795 -0.91058876 7.59634698 0 0 Z " fill="#00A7EB" transform="translate(7,149)"/>
<path d="M0 0 C0.99 0.495 0.99 0.495 2 1 C2.91711989 4.34531842 3.12459935 7.51725723 3.12304783 10.97248554 C3.12503888 11.95430815 3.12702993 12.93613076 3.12908131 13.94770557 C3.12616847 15.01871593 3.12325563 16.0897263 3.12025452 17.19319153 C3.12153615 18.90856638 3.12153615 18.90856638 3.12284368 20.65859526 C3.1244936 24.49873103 3.11898503 28.33882332 3.11352539 32.17895508 C3.11268681 34.92842639 3.11335745 37.67789684 3.1139679 40.42736816 C3.11449217 46.35102096 3.11135539 52.27466274 3.10573006 58.19831276 C3.09760207 66.76290947 3.0949985 75.32750086 3.09374207 83.89210101 C3.09155359 97.7876895 3.08489904 111.68327212 3.07543945 125.57885742 C3.06626005 139.076904 3.0591818 152.57494898 3.05493164 166.07299805 C3.05466892 166.9050562 3.05440619 167.73711434 3.05413551 168.59438638 C3.05283047 172.76858907 3.05156676 176.94279178 3.05032361 181.1169945 C3.03995736 215.74466719 3.02234459 250.37233305 3 285 C2.30519028 285.38777115 1.61038055 285.7755423 0.89451599 286.17506409 C-2.32222001 287.97111435 -5.53806565 289.76875329 -8.75390625 291.56640625 C-9.84626587 292.17601196 -10.93862549 292.78561768 -12.06408691 293.41369629 C-19.39858249 297.51553565 -26.68532036 301.69189221 -33.9375 305.9375 C-35.04359619 306.58460938 -36.14969238 307.23171875 -37.28930664 307.8984375 C-38.15418701 308.40632813 -39.01906738 308.91421875 -39.91015625 309.4375 C-46.21570419 313.1321331 -52.54294436 316.78852681 -58.875 320.4375 C-59.95515381 321.06003662 -61.03530762 321.68257324 -62.14819336 322.32397461 C-64.33796334 323.58576826 -66.52782355 324.84740534 -68.71777344 326.10888672 C-74.14659942 329.23680148 -79.57319281 332.36858448 -85 335.5 C-87.16665583 336.75001879 -89.3333225 338.00001878 -91.5 339.25 C-92.5725 339.86875 -93.645 340.4875 -94.75 341.125 C-104.49999999 346.75 -104.49999999 346.75 -107.75048828 348.62524414 C-109.91557071 349.87435518 -112.08060982 351.12354129 -114.24560547 352.37280273 C-119.68615706 355.51202309 -125.12747216 358.64990563 -130.5703125 361.78515625 C-141.0220663 367.80747577 -151.46264554 373.84728753 -161.875 379.9375 C-180.42408487 390.7734983 -199.06735985 401.43177403 -217.875 411.8125 C-218.49555267 412.15528992 -219.11610535 412.49807983 -219.75546265 412.85125732 C-237.11325138 422.4311837 -237.11325138 422.4311837 -242 422 C-241.6757435 420.84078285 -241.35148701 419.6815657 -241.01740456 418.48722076 C-239.99583039 414.38079723 -239.70946321 410.42627503 -239.7215271 406.20446777 C-239.7128385 405.09165554 -239.7128385 405.09165554 -239.70397437 403.95636225 C-239.68709555 401.49364936 -239.68410842 399.03112523 -239.68115234 396.56835938 C-239.67184578 394.79379829 -239.66167603 393.01924155 -239.65071106 391.24468994 C-239.62347909 386.4436731 -239.60828185 381.6426855 -239.59528303 376.84161186 C-239.57962268 371.81807997 -239.55284173 366.79460752 -239.5272522 361.77111816 C-239.4805158 352.26576137 -239.44374683 342.76039333 -239.41057932 333.25498056 C-239.37232161 322.43029672 -239.32292101 311.60567265 -239.27259517 300.78103924 C-239.16935175 278.52073699 -239.08006669 256.26039689 -239 234 C-238.10935852 233.77860352 -237.21871704 233.55720703 -236.30108643 233.32910156 C-232.95358027 232.49294557 -229.60802529 231.64968174 -226.26348877 230.80175781 C-224.82384508 230.43827844 -223.38350822 230.07753192 -221.94244385 229.71972656 C-196.4691974 223.38844323 -177.04226416 210.54710717 -163 188 C-158.3973613 180.03232101 -155.3072468 171.89621122 -153 163 C-152.773125 162.13117188 -152.54625 161.26234375 -152.3125 160.3671875 C-147.80455873 139.8936209 -151.88040833 117.64686442 -163.08203125 100 C-164.20652209 97.55004549 -164.16193211 95.66493985 -164 93 C-163.46375 92.9484375 -162.9275 92.896875 -162.375 92.84375 C-154.16511858 91.65547769 -147.33231327 87.95795761 -140.10888672 84.11767578 C-138.09282508 83.04919579 -136.06649025 82.00393178 -134.03515625 80.96484375 C-123.64440806 75.60941657 -113.58049402 69.72474176 -103.50390625 63.8046875 C-96.74157852 59.83676957 -89.93717258 55.94391431 -83.125 52.0625 C-72.88668845 46.22688796 -62.67127636 40.35328385 -52.47094727 34.45141602 C-44.29128766 29.72612966 -36.07479602 25.06860472 -27.82104492 20.47387695 C-12.21809934 12.26989446 -12.21809934 12.26989446 0 0 Z " fill="#3D748B" transform="translate(488,140)"/>
<path d="M0 0 C1.1446875 0.63421875 2.289375 1.2684375 3.46875 1.921875 C4.12633301 2.27757568 4.78391602 2.63327637 5.46142578 2.99975586 C7.64806847 4.19484038 9.80806672 5.43054127 11.96875 6.671875 C13.55940773 7.56467227 15.15057138 8.45656864 16.7421875 9.34765625 C21.19670353 11.85865105 25.62531547 14.41253302 30.04833984 16.97851562 C33.08782281 18.74091772 36.13128896 20.49626672 39.17578125 22.25 C46.85680341 26.67534271 54.53314125 31.10878171 62.20849609 35.54394531 C73.89517662 42.29672375 85.59022926 49.0337465 97.31506348 55.72003174 C107.58579887 61.57719156 117.82662202 67.48243482 128.03173828 73.45336914 C135.32803948 77.72093712 142.6440065 81.95333112 149.96875 86.171875 C162.32847796 93.29357269 174.66215249 100.45874284 186.96875 107.671875 C187.8963916 108.21553711 188.8240332 108.75919922 189.77978516 109.31933594 C200.40564824 115.55442388 210.99020476 121.85688003 221.53125 128.234375 C222.5013501 128.81832031 223.4714502 129.40226563 224.47094727 130.00390625 C225.37901123 130.555625 226.2870752 131.10734375 227.22265625 131.67578125 C228.02002197 132.15861572 228.8173877 132.6414502 229.63891602 133.13891602 C230.40776123 133.64479248 231.17660645 134.15066895 231.96875 134.671875 C232.82940158 135.12728291 233.69005316 135.58269081 234.57678509 136.05189896 C238.40321841 140.24308235 237.64174485 144.64424289 237.57002258 150.12445068 C237.57429471 151.30801502 237.57856683 152.49157935 237.58296841 153.71100926 C237.58978786 156.99758122 237.57413746 160.28266888 237.54907811 163.56906152 C237.52750631 167.11230977 237.53479119 170.65551133 237.53858948 174.19880676 C237.54121256 180.33812091 237.52551158 186.47716957 237.49740028 192.61641693 C237.4567826 201.49271512 237.44374487 210.36888481 237.43746033 219.24526587 C237.4265144 233.64616801 237.39323217 248.04692862 237.34594727 262.44775391 C237.30005936 276.43765555 237.2646637 290.42751877 237.2434082 304.41748047 C237.24209459 305.2796713 237.24078097 306.14186212 237.23942754 307.03017995 C237.23290241 311.35549376 237.22658385 315.68080785 237.22036803 320.00612211 C237.16852574 355.89480634 237.08045239 391.78332966 236.96875 427.671875 C236.39545708 427.98638013 235.82216415 428.30088526 235.23149872 428.62492085 C232.60645661 430.06547292 229.98193573 431.50697208 227.35742188 432.94848633 C226.45562195 433.44318672 225.55382202 433.93788712 224.62469482 434.44757843 C218.17941815 437.98885738 211.7992891 441.61646724 205.46875 445.359375 C196.67058011 450.52627923 187.83459615 455.62239139 178.96875 460.671875 C170.27448349 465.6252159 161.60371664 470.61557101 152.96875 475.671875 C143.74074471 481.0754396 134.4688033 486.39839861 125.17773438 491.69238281 C117.08130867 496.30690304 109.01068491 500.96282755 100.96875 505.671875 C91.74051619 511.0755734 82.46932076 516.40050554 73.17672729 521.69238281 C66.07166989 525.73918218 58.98804952 529.81877749 51.93896484 533.96264648 C41.98151532 539.8158878 31.95118111 545.52036194 21.84375 551.109375 C21.24990509 551.43881104 20.65606018 551.76824707 20.04421997 552.10766602 C16.03628593 554.32849569 12.00642538 556.50569357 7.96875 558.671875 C7.36824829 559.00455383 6.76774658 559.33723267 6.14904785 559.67999268 C-8.00759247 567.51109624 -8.00759247 567.51109624 -15.03125 565.671875 C-18.52511972 564.29775711 -21.67904827 562.51854604 -24.90625 560.609375 C-26.85281255 559.50251265 -28.79942964 558.39574621 -30.74609375 557.2890625 C-31.76687012 556.69963867 -32.78764648 556.11021484 -33.83935547 555.50292969 C-38.21456493 552.99305735 -42.63079282 550.56010704 -47.04711914 548.12353516 C-76.43219577 531.89936656 -105.54386674 515.17792508 -134.60546875 498.3828125 C-138.89643479 495.9030659 -143.19082836 493.42942456 -147.48828125 490.9609375 C-159.68079676 483.95267738 -171.81706896 476.85909795 -183.90136719 469.66577148 C-191.8003656 464.97137543 -199.7473792 460.36709668 -207.71875 455.796875 C-216.59845107 450.69733511 -225.36745062 445.47968939 -233.99316406 439.96240234 C-236.35565211 438.46646178 -238.7356091 437.00050451 -241.1171875 435.53515625 C-242.85939161 434.45575597 -244.60157933 433.37632925 -246.34375 432.296875 C-247.16351318 431.79647705 -247.98327637 431.2960791 -248.82788086 430.78051758 C-249.59237549 430.30380615 -250.35687012 429.82709473 -251.14453125 429.3359375 C-251.82298096 428.91779785 -252.50143066 428.4996582 -253.20043945 428.06884766 C-256.2982751 425.70509041 -257.80497294 423.35070617 -259.03125 419.671875 C-259.12577392 418.10846185 -259.16392203 416.54133103 -259.16826439 414.97506905 C-259.17333893 414.00379542 -259.17841347 413.0325218 -259.18364179 412.03181565 C-259.18413955 410.96228114 -259.18463731 409.89274664 -259.18515015 408.790802 C-259.1895324 407.656539 -259.19391465 406.522276 -259.1984297 405.35364139 C-259.21184086 401.53279705 -259.21800172 397.71197578 -259.22412109 393.89111328 C-259.23149261 391.15989909 -259.24028362 388.42868975 -259.24890137 385.69747925 C-259.27342041 377.48803988 -259.28805007 369.27859447 -259.30096143 361.06912977 C-259.30467318 358.75113165 -259.30864641 356.43313414 -259.3127141 354.11513662 C-259.33794609 339.72491203 -259.36000209 325.33468649 -259.37244225 310.94444466 C-259.37537199 307.61156333 -259.37833365 304.27868203 -259.38134766 300.94580078 C-259.38246673 299.70322651 -259.38246673 299.70322651 -259.38360842 298.43554972 C-259.39626948 285.00807815 -259.4295033 271.58073877 -259.47114949 258.15332903 C-259.51354155 244.37270779 -259.53713395 230.59215429 -259.54236281 216.81146801 C-259.54577961 209.07198707 -259.55756655 201.33271288 -259.59046555 193.59329605 C-259.61842957 187.00401268 -259.62948148 180.41497845 -259.61827008 173.82564034 C-259.61307411 170.46274101 -259.61874007 167.10078748 -259.64073563 163.73789215 C-259.66327831 160.09379264 -259.65519992 156.45101957 -259.63925171 152.80691528 C-259.6531338 151.74184222 -259.66701588 150.67676916 -259.68131864 149.57942116 C-259.60369267 142.40941172 -259.60369267 142.40941172 -256.64628029 138.59907341 C-255.78332029 137.96309793 -254.9203603 137.32712246 -254.03125 136.671875 C-252.81924927 135.69661865 -252.81924927 135.69661865 -251.58276367 134.70166016 C-244.72884254 129.72799523 -237.6600129 125.30551538 -230.34375 121.046875 C-229.15972159 120.35235134 -227.97597041 119.65735488 -226.79248047 118.96191406 C-223.78686101 117.19762701 -220.77728642 115.44021311 -217.76654053 113.68469238 C-215.06712506 112.10915511 -212.37168329 110.52685189 -209.67578125 108.9453125 C-199.52003177 102.99560322 -189.33085462 97.10685875 -179.10400391 91.28027344 C-172.06526443 87.26910537 -165.04623682 83.2244207 -158.03125 79.171875 C-150.20839552 74.65333491 -142.37874039 70.14749748 -134.53125 65.671875 C-126.82966802 61.2794221 -119.14573363 56.85717224 -111.46875 52.421875 C-99.44911179 45.47939035 -87.40222728 38.58530685 -75.34606934 31.70654297 C-70.60851713 29.00291883 -65.87460526 26.29297477 -61.14259338 23.57966614 C-58.21641118 21.90255419 -55.28790053 20.22980504 -52.35375977 18.56665039 C-46.58493066 15.29324148 -40.85295496 11.97731867 -35.171875 8.5546875 C-33.51128052 7.57459717 -33.51128052 7.57459717 -31.81713867 6.57470703 C-29.74392278 5.35084544 -27.68289559 4.10596711 -25.63793945 2.83544922 C-17.5919682 -1.85648472 -8.9281037 -3.62567392 0 0 Z M-24.21875 8.609375 C-25.30953857 9.24182129 -26.40032715 9.87426758 -27.52416992 10.52587891 C-29.84977238 11.87494971 -32.1708777 13.22967704 -34.48730469 14.59423828 C-39.66027736 17.63600308 -44.88396061 20.58885335 -50.10079956 23.55450439 C-53.04316525 25.22977705 -55.9804715 26.91386632 -58.91796875 28.59765625 C-63.64725129 31.30775888 -68.37892484 34.01361443 -73.11328125 36.71484375 C-87.70346979 45.04039697 -102.26861082 53.40845275 -116.81347656 61.81298828 C-122.21795649 64.93512107 -127.62475107 68.05324026 -133.03125 71.171875 C-134.10246094 71.78998047 -135.17367187 72.40808594 -136.27734375 73.04492188 C-141.71771075 76.18409874 -147.15887955 79.32187129 -152.6015625 82.45703125 C-163.09357094 88.50242659 -173.57606676 94.56297719 -184.03125 100.671875 C-198.48645932 109.11796289 -212.99481657 117.4715628 -227.50524902 125.8223114 C-229.91342475 127.20847238 -232.32115699 128.59540249 -234.7288208 129.98245239 C-236.43383234 130.96426798 -238.1395167 131.94491484 -239.84521484 132.92553711 C-240.87469238 133.51858643 -241.90416992 134.11163574 -242.96484375 134.72265625 C-243.87290771 135.24512939 -244.78097168 135.76760254 -245.71655273 136.3059082 C-249.40819926 138.18925501 -249.40819926 138.18925501 -251.68575859 141.40307903 C-253.26205968 151.75443787 -253.28789112 162.40905505 -253.58544922 172.86010742 C-253.60641151 173.57759734 -253.62737381 174.29508725 -253.64897132 175.03431928 C-254.18747749 193.92811289 -254.17842955 212.82310547 -254.1655755 231.72306466 C-254.16298378 236.75419425 -254.16540768 241.78532233 -254.16696167 246.81645203 C-254.16876317 255.24816218 -254.16643 263.67986347 -254.16162109 272.11157227 C-254.15617353 281.77288913 -254.15795298 291.43418489 -254.1634475 301.09550124 C-254.16802629 309.49232609 -254.16860641 317.88914469 -254.16600883 326.28597039 C-254.16447311 331.25681063 -254.16417606 336.22764105 -254.16754532 341.19848061 C-254.17982951 362.12228285 -254.03472126 382.99781813 -253.14318466 403.90512657 C-252.94072995 408.90930704 -252.82347956 413.91512525 -252.703125 418.921875 C-251.52300056 423.75215177 -248.5880269 425.70463768 -244.55175781 428.21240234 C-241.48674183 429.97772267 -238.39176658 431.67556101 -235.28125 433.359375 C-233.00313941 434.61319103 -230.72579609 435.86840216 -228.44921875 437.125 C-227.34239746 437.73408203 -226.23557617 438.34316406 -225.09521484 438.97070312 C-221.22278719 441.12074901 -217.39965121 443.34419798 -213.59375 445.609375 C-206.62407609 449.74592508 -199.61622607 453.81309363 -192.59375 457.859375 C-190.93291382 458.81638306 -190.93291382 458.81638306 -189.23852539 459.79272461 C-186.96787932 461.10076977 -184.69712642 462.40862948 -182.42626953 463.71630859 C-176.9595502 466.86519554 -171.49550113 470.01870764 -166.03125 473.171875 C-163.86459689 474.4218985 -161.69793021 475.67189847 -159.53125 476.921875 C-146.53125 484.421875 -146.53125 484.421875 -143.28173828 486.29663086 C-141.11348736 487.5475198 -138.94519303 488.79833352 -136.77685547 490.04907227 C-131.38407085 493.15985835 -125.99202907 496.27191738 -120.6015625 499.38671875 C-105.8567423 507.90448242 -91.08318342 516.37062714 -76.29345703 524.81005859 C-70.55235588 528.08663675 -64.81307192 531.36639858 -59.07495117 534.64819336 C-55.41556232 536.74066593 -51.75490418 538.83060952 -48.0859375 540.90625 C-42.40180743 544.12771507 -36.80238722 547.42943471 -31.28125 550.921875 C-22.74243663 556.43530604 -22.74243663 556.43530604 -13.03125 558.671875 C-13.03125 559.331875 -13.03125 559.991875 -13.03125 560.671875 C-8.07657092 560.16553767 -4.4366058 559.15800028 -0.06640625 556.78515625 C1.05080811 556.18372803 2.16802246 555.5822998 3.3190918 554.96264648 C4.51508414 554.30371781 5.71079664 553.644281 6.90625 552.984375 C8.15833952 552.3029695 9.4107038 551.62206866 10.66333008 550.94165039 C19.56977326 546.08263784 28.35906466 541.02936306 37.09741211 535.87426758 C44.16621111 531.70446712 51.29625754 527.66042093 58.46875 523.671875 C68.678993 517.98702205 78.78952633 512.14771176 88.87109375 506.23828125 C95.21921566 502.51852617 101.59234042 498.84286847 107.96875 495.171875 C116.27699733 490.38734944 124.56873734 485.57613772 132.84375 480.734375 C142.11433188 475.31219117 151.42811802 469.96863429 160.75921631 464.65164185 C168.85582874 460.03703454 176.92662441 455.38100352 184.96875 450.671875 C197.25413865 443.4784498 209.61425448 436.41846865 221.98461914 429.37255859 C224.20893636 428.10489977 226.43247864 426.83593211 228.65525818 425.56558228 C229.74871048 424.94065887 230.84216278 424.31573547 231.96875 423.671875 C232.01451813 388.23106062 232.04976448 352.79025141 232.07088066 317.34941357 C232.0733821 313.16621056 232.07597074 308.98300761 232.07861328 304.79980469 C232.0791379 303.96699703 232.07966252 303.13418937 232.08020304 302.27614512 C232.08890793 288.78778201 232.10467837 275.29943594 232.12305559 261.81108294 C232.1417523 247.97292318 232.15286624 234.13477234 232.15692699 220.29660046 C232.15967252 211.75629459 232.16834712 203.21603686 232.18458293 194.6757458 C232.19514698 188.82099568 232.19835194 182.96627048 232.19575275 177.11151151 C232.19447055 173.73257181 232.19753939 170.35378422 232.20716095 166.97484779 C232.21708249 163.31160458 232.21472892 159.64856886 232.20925903 155.98532104 C232.21508472 154.91722352 232.2209104 153.84912599 232.22691262 152.74866188 C232.20656116 147.72064688 232.17717547 143.30754093 229.96875 138.671875 C227.67976026 137.41409509 227.67976026 137.41409509 224.96875 136.671875 C223.07108309 135.59137617 221.1963612 134.47007786 219.33984375 133.3203125 C218.23688965 132.64210449 217.13393555 131.96389648 215.99755859 131.26513672 C215.41351257 130.90417908 214.82946655 130.54322144 214.22772217 130.17132568 C200.4541621 121.66848424 186.463781 113.59293553 172.3828125 105.61279297 C166.85517765 102.47029461 161.34908416 99.29073273 155.84375 96.109375 C154.77882324 95.49433105 153.71389648 94.87928711 152.61669922 94.24560547 C150.47320092 93.00750836 148.32980878 91.76922745 146.18652344 90.53076172 C140.78204355 87.40862895 135.37527588 84.29046296 129.96875 81.171875 C127.8020725 79.92189378 125.63540583 78.67189379 123.46875 77.421875 C122.39625 76.803125 121.32375 76.184375 120.21875 75.546875 C84.46875 54.921875 84.46875 54.921875 81.21801758 53.04638672 C79.0538682 51.79788278 76.88964307 50.54951013 74.7253418 49.30126953 C69.26952827 46.15445842 63.81509816 43.00529329 58.36328125 39.8515625 C45.22204283 32.25264236 32.06519844 24.68370711 18.81835938 17.27001953 C16.85892165 16.17110938 14.90202418 15.06766136 12.94726562 13.96044922 C9.9604281 12.26997552 6.96567043 10.5943937 3.96875 8.921875 C3.06672852 8.40794189 2.16470703 7.89400879 1.23535156 7.36450195 C-9.26626378 1.55401902 -14.09809073 2.54699596 -24.21875 8.609375 Z " fill="#97C6CF" transform="translate(259.03125,1.328125)"/>
<path d="M0 0 C1.23814453 -0.00773438 2.47628906 -0.01546875 3.75195312 -0.0234375 C25.70772591 0.02256726 44.31554574 6.39033744 60.8125 21.25 C61.32312988 21.70616699 61.83375977 22.16233398 62.35986328 22.63232422 C79.30031302 37.97281465 90.67182125 59.15765576 92.05078125 82.23828125 C92.69307668 107.3866177 84.37867721 130.67596426 67.02954102 149.05395508 C54.38377844 162.00054772 40.26891995 169.71896204 22.8125 174.25 C21.73742187 174.58644531 21.73742187 174.58644531 20.640625 174.9296875 C0.1640333 180.72345182 -23.7112973 174.33314956 -41.83007812 164.46972656 C-63.37151487 152.17495723 -76.63272741 131.11226561 -84.25463867 108.01635742 C-85.23404831 104.06206469 -85.51042309 100.37736221 -85.5234375 96.33203125 C-85.5300943 95.59353439 -85.5367511 94.85503754 -85.54360962 94.09416199 C-85.55367858 92.53862982 -85.55842843 90.98305496 -85.55810547 89.42749023 C-85.56245694 87.08567343 -85.59877408 84.74577857 -85.63671875 82.40429688 C-85.73371443 69.80756779 -82.98032076 59.73573488 -76.9375 48.625 C-76.54473877 47.89772705 -76.15197754 47.1704541 -75.74731445 46.42114258 C-72.46321414 40.48594981 -68.79800294 35.24403151 -64.1875 30.25 C-63.30449219 29.27546875 -62.42148438 28.3009375 -61.51171875 27.296875 C-45.13042239 9.76305619 -23.97694598 -0.14747481 0 0 Z M-33.3125 12.9375 C-33.98772705 13.28200195 -34.6629541 13.62650391 -35.35864258 13.98144531 C-41.21875443 17.07006238 -46.21909881 20.87854166 -51.1875 25.25 C-52.0125 25.88679688 -52.8375 26.52359375 -53.6875 27.1796875 C-68.36468955 39.33423509 -77.57850532 59.60249434 -79.90625 78.1796875 C-81.78087563 98.64435064 -75.84522654 121.51269845 -62.96386719 137.796875 C-48.26111527 155.43581123 -28.24799167 167.69056696 -5.1875 170.25 C11.25225779 171.28919712 26.98443754 168.66403123 41.8125 161.25 C43.06546875 160.62351562 43.06546875 160.62351562 44.34375 159.984375 C65.36614952 148.40874995 77.17226139 128.16021398 83.90234375 105.87109375 C89.0578132 85.35984834 84.71178431 64.37961554 74.5625 46.125 C63.38256304 27.7821597 46.02681468 12.74332746 24.93359375 7.1015625 C18.5951092 5.79536576 12.13697819 5.91487284 5.69360352 5.93432617 C3.51462364 5.93747884 1.33701537 5.9139869 -0.84179688 5.88867188 C-12.48541936 5.83363357 -22.90574167 7.5060146 -33.3125 12.9375 Z " fill="#92BFC8" transform="translate(246.1875,195.75)"/>
<path d="M0 0 C0.99 0.495 0.99 0.495 2 1 C0.43902526 2.1063219 -1.12385327 3.20995785 -2.6875 4.3125 C-3.55761719 4.92738281 -4.42773438 5.54226563 -5.32421875 6.17578125 C-12.40042827 11 -12.40042827 11 -15 11 C-15.33 11.99 -15.66 12.98 -16 14 C-15.01 14.99 -15.01 14.99 -14 16 C-15.09332642 16.60303955 -15.09332642 16.60303955 -16.20874023 17.21826172 C-33.96854564 27.00263526 -33.96854564 27.00263526 -51.515625 37.16088867 C-57.79194831 40.89048475 -64.11137742 44.54308814 -70.4375 48.1875 C-71.54488525 48.82558594 -72.65227051 49.46367187 -73.79321289 50.12109375 C-76.06369079 51.42906691 -78.334281 52.73684513 -80.60498047 54.04443359 C-86.0716998 57.19332054 -91.53574887 60.34683264 -97 63.5 C-99.16665311 64.7500235 -101.33331979 66.00002347 -103.5 67.25 C-104.5725 67.86875 -105.645 68.4875 -106.75 69.125 C-124.625 79.4375 -124.625 79.4375 -142.5 89.75 C-143.57258057 90.36883057 -144.64516113 90.98766113 -145.75024414 91.62524414 C-147.91597778 92.87463702 -150.08183058 94.12382338 -152.24780273 95.37280273 C-157.67974271 98.50540517 -163.10953602 101.64161915 -168.53515625 104.78515625 C-179.59371133 111.18817273 -190.67522901 117.54742933 -201.8125 123.8125 C-202.86252197 124.40554932 -203.91254395 124.99859863 -204.99438477 125.60961914 C-205.97205811 126.15739014 -206.94973145 126.70516113 -207.95703125 127.26953125 C-208.81272705 127.75010986 -209.66842285 128.23068848 -210.55004883 128.72583008 C-212.9850065 129.99220219 -215.43554789 131.02654556 -218 132 C-218 131.01 -218 130.02 -218 129 C-219.53720703 129.83144531 -219.53720703 129.83144531 -221.10546875 130.6796875 C-222.46607091 131.41159763 -223.82675218 132.14336071 -225.1875 132.875 C-226.19780273 133.42220703 -226.19780273 133.42220703 -227.22851562 133.98046875 C-238.10386561 139.8160224 -238.10386561 139.8160224 -243 139 C-245.48261687 137.51250305 -247.74938284 135.81605996 -250 134 C-249.34 133.67 -248.68 133.34 -248 133 C-245.375 133.9375 -245.375 133.9375 -243 135 C-243 135.66 -243 136.32 -243 137 C-235.42999475 134.76609855 -228.84370355 131.47934475 -221.9375 127.6875 C-220.23219116 126.7603418 -220.23219116 126.7603418 -218.49243164 125.81445312 C-209.89225448 121.12083891 -201.41311479 116.22675793 -192.97241211 111.25268555 C-185.86832654 107.06925266 -178.70486809 103.00711399 -171.5 99 C-161.28979439 93.31507792 -151.17922536 87.47583775 -141.09765625 81.56640625 C-134.74953434 77.84665117 -128.37640958 74.17099347 -122 70.5 C-113.69175267 65.71547444 -105.40001266 60.90426272 -97.125 56.0625 C-87.85441812 50.64031617 -78.54063198 45.29675929 -69.20953369 39.97976685 C-60.14618776 34.81417658 -51.12178001 29.58526559 -42.11987305 24.31323242 C-32.84261352 18.88863739 -23.51259369 13.55798379 -14.17382812 8.24023438 C-12.48870117 7.28020508 -12.48870117 7.28020508 -10.76953125 6.30078125 C-9.77542236 5.73528564 -8.78131348 5.16979004 -7.75708008 4.5871582 C-5.89759189 3.51671344 -4.06616421 2.39619453 -2.2644043 1.23120117 C-1.51715088 0.82490479 -0.76989746 0.4186084 0 0 Z " fill="#94A2A7" transform="translate(489,425)"/>
<path d="M0 0 C2.91123784 2.91123784 2.72656434 6.17728478 3.10882568 10.10714722 C3.19308044 10.94995109 3.2773352 11.79275497 3.36414313 12.66109836 C4.35009547 23.5223061 4.27993035 34.38928178 4.25878906 45.28564453 C4.2615058 47.66477566 4.26507053 50.04390594 4.26940918 52.42303467 C4.27845331 58.82782673 4.2750224 65.23255368 4.26865101 71.63734674 C4.26561253 75.64927722 4.26577495 79.661192 4.26763153 83.67312241 C4.267938 84.34282795 4.26824446 85.0125335 4.26856022 85.70253315 C4.26919978 87.06375457 4.26984821 88.42497599 4.2705054 89.78619741 C4.2761834 102.49505251 4.26969033 115.20387856 4.25890467 127.91272889 C4.24996735 138.77956163 4.25152762 149.64635162 4.26074219 160.51318359 C4.27148269 173.18519316 4.27563861 185.85717741 4.26951766 198.5291909 C4.26888067 199.88429697 4.26825193 201.23940305 4.26763153 202.59450912 C4.26732298 203.26095516 4.26701443 203.92740119 4.26669653 204.61404256 C4.26498119 209.27454227 4.26795905 213.93502528 4.27259064 218.59552383 C4.27840547 224.88464257 4.27429209 231.17368127 4.26280212 237.46279144 C4.26017777 239.75839735 4.26088211 242.05401009 4.26532745 244.34961319 C4.28764498 257.05436352 3.87467433 269.42321599 2 282 C1.67 282 1.34 282 1 282 C0.67 188.94 0.34 95.88 0 0 Z " fill="#939EA4" transform="translate(490,142)"/>
<path d="M0 0 C8.47918502 7.52066845 11.77983201 23.20441841 13 34 C14.49542047 59.02990651 7.62893409 82.69349306 -8.99633789 101.79174805 C-22.15311509 116.30450972 -37.11119604 125.09716837 -56 130 C-57.07507813 130.33644531 -57.07507813 130.33644531 -58.171875 130.6796875 C-66.1578155 132.93927532 -74.78248828 132.15956333 -83 132 C-83 131.67 -83 131.34 -83 131 C-82.01644531 130.99742187 -81.03289062 130.99484375 -80.01953125 130.9921875 C-65.95845127 130.69334447 -51.44210938 127.80141495 -39 121 C-39 120.01 -39 119.02 -39 118 C-36.49966045 115.81360443 -33.67959837 114.14469122 -30.875 112.375 C-11.29380643 99.32087095 -0.62825251 80.39223207 5 58 C6.14154507 52.00688837 6.11648049 46.13738092 6.0625 40.0625 C6.05798828 39.09248047 6.05347656 38.12246094 6.04882812 37.12304688 C6.0371315 34.7486324 6.02074086 32.37434979 6 30 C6.33 30 6.66 30 7 30 C7.12375 30.804375 7.2475 31.60875 7.375 32.4375 C7.684375 33.7059375 7.684375 33.7059375 8 35 C8.66 35.33 9.32 35.66 10 36 C8.59849589 26.48572414 6.92859085 17.73369103 3.18359375 8.83203125 C1.96951922 5.92706743 0.9632781 2.99637198 0 0 Z " fill="#96A1A5" transform="translate(325,240)"/>
<path d="M0 0 C0.99 0 1.98 0 3 0 C3.04671326 23.36545151 3.08198555 46.73089532 3.10362434 70.09638405 C3.11393849 80.94529404 3.12800151 91.79417503 3.15087891 102.64306641 C3.1708085 112.09855683 3.18371543 121.55402625 3.18817699 131.0095371 C3.19078509 136.01650237 3.19691822 141.02340753 3.21146011 146.03035355 C3.22503717 150.74328944 3.22922237 155.45614049 3.22621536 160.16909409 C3.22676547 161.89846508 3.23074217 163.62783892 3.23841095 165.35719299 C3.24837415 167.71989162 3.2459639 170.08227065 3.24050903 172.44497681 C3.24633472 173.12787045 3.2521604 173.8107641 3.25816262 174.51435149 C3.23204227 178.70555847 2.5197891 182.0996307 1 186 C-10.36811452 184.64542828 -22.77347648 176.6670062 -32 170 C-32 169.34 -32 168.68 -32 168 C-27.21758816 168.62097208 -23.46492904 170.61323305 -19.25 172.8125 C-14.95606435 175.03020126 -10.66064918 177.18115071 -6.23730469 179.1315918 C-5.04122589 179.65996895 -5.04122589 179.65996895 -3.82098389 180.19902039 C-3.2200592 180.46334366 -2.61913452 180.72766693 -2 181 C-1.22049626 155.50042473 -0.86560694 130.00193994 -0.68359375 104.4921875 C-0.6754744 103.35423406 -0.6754744 103.35423406 -0.66719103 102.19329166 C-0.60088848 92.81781354 -0.54064962 83.44230031 -0.48259127 74.06676793 C-0.43228396 65.96685852 -0.37772422 57.86697917 -0.32291877 49.76709914 C-0.21076378 33.17809398 -0.10359852 16.58906086 0 0 Z " fill="#0298C6" transform="translate(246,374)"/>
<path d="M0 0 C0.66 0 1.32 0 2 0 C2 69.3 2 138.6 2 210 C-18 221 -18 221 -22 220 C-17.53500888 215.15803965 -12.66156499 212.39663428 -6.86328125 209.2578125 C-3.33929691 206.47900902 -2.57079518 204.2760217 -2 200 C-0.80531461 189.8116625 -0.82854592 179.62038633 -0.79467773 169.37988281 C-0.78508075 167.52591747 -0.77506965 165.67195423 -0.76467896 163.81799316 C-0.73782086 158.81887678 -0.71670885 153.81975114 -0.69667697 148.82060337 C-0.67469855 143.58357146 -0.64736827 138.34656744 -0.62062073 133.10955811 C-0.57085322 123.20766861 -0.52585574 113.30576349 -0.48259836 103.40384364 C-0.43308911 92.12443865 -0.37822206 80.84506168 -0.32291877 69.56568384 C-0.20934368 46.37714874 -0.10245205 23.18858673 0 0 Z " fill="#A3D1D9" transform="translate(494,219)"/>
<path d="M0 0 C0.33 0 0.66 0 1 0 C1 21.45 1 42.9 1 65 C-19 76 -19 76 -23 75 C-18.53500888 70.15803965 -13.66156499 67.39663428 -7.86328125 64.2578125 C-3.59925474 60.89545599 -3.3490382 57.67178813 -2.68676758 52.60229492 C-1.57428547 41.67789487 -1.653889 30.62741514 -1.44775391 19.65698242 C-1.39610786 16.97825821 -1.33891502 14.29969408 -1.28125 11.62109375 C-1.26767456 10.79927109 -1.25409912 9.97744843 -1.2401123 9.13072205 C-1.1681526 5.85128844 -1.04387053 3.1316116 0 0 Z " fill="#9CCAD3" transform="translate(495,364)"/>
<path d="M0 0 C8.47918502 7.52066845 11.77983201 23.20441841 13 34 C14.44304795 58.15331077 8.22471824 81.77240548 -7.8046875 100.328125 C-10.14074525 102.9461137 -12.547161 105.49083275 -15 108 C-15.99 107.67 -16.98 107.34 -18 107 C-17.52691406 106.58492188 -17.05382812 106.16984375 -16.56640625 105.7421875 C-3.59971694 93.6601651 7.57473283 74.08716286 9.36791992 56.36352539 C9.49857413 52.58848968 9.49744685 48.83915171 9.4375 45.0625 C9.44458984 43.80759766 9.45167969 42.55269531 9.45898438 41.25976562 C9.37610427 28.89787937 7.18175885 17.796012 2.0859375 6.5234375 C1.14579415 4.33878784 0.49008679 2.31974416 0 0 Z " fill="#9CA2A6" transform="translate(325,240)"/>
<path d="M0 0 C0.66 0.33 1.32 0.66 2 1 C0.49284874 5.20659575 -2.01457438 6.48335774 -5.828125 8.609375 C-6.41358093 8.93987854 -6.99903687 9.27038208 -7.60223389 9.61090088 C-9.47926933 10.66755305 -11.36423969 11.70901391 -13.25 12.75 C-14.47191981 13.43388616 -15.69327975 14.11877368 -16.9140625 14.8046875 C-18.74620669 15.83384059 -20.57959486 16.86018778 -22.4185791 17.8770752 C-25.61335174 19.64519951 -28.7754893 21.45122784 -31.90429688 23.33398438 C-32.53648132 23.70992737 -33.16866577 24.08587036 -33.82000732 24.47320557 C-35.57360661 25.51949303 -37.31975718 26.57823536 -39.06542969 27.63769531 C-42 29 -42 29 -44.39550781 28.71386719 C-44.92499023 28.47829102 -45.45447266 28.24271484 -46 28 C-42.27487825 23.80571934 -37.749548 21.48719869 -32.86914062 18.91210938 C-28.91824985 16.88330849 -28.91824985 16.88330849 -27 13 C-24.890625 11.6484375 -24.890625 11.6484375 -22.25 10.375 C-21.38890625 9.94960938 -20.5278125 9.52421875 -19.640625 9.0859375 C-17 8 -17 8 -14.55859375 7.578125 C-10.08905254 6.5682134 -6.49554407 3.8011656 -2.64453125 1.3984375 C-1.33548828 0.70621094 -1.33548828 0.70621094 0 0 Z " fill="#92ADB3" transform="translate(355,505)"/>
<path d="M0 0 C0.33 0 0.66 0 1 0 C1.12375 0.804375 1.2475 1.60875 1.375 2.4375 C1.58125 3.283125 1.7875 4.12875 2 5 C2.66 5.33 3.32 5.66 4 6 C4.56367196 19.95998641 4.79997107 32.10006435 -1 45 C-1.51820313 46.31097656 -1.51820313 46.31097656 -2.046875 47.6484375 C-3 49.875 -3 49.875 -5 53 C-7.625 53.6953125 -7.625 53.6953125 -10 54 C-9.52949219 52.87464844 -9.05898438 51.74929688 -8.57421875 50.58984375 C-1.53972548 33.41889994 0.51980368 18.44903221 0 0 Z " fill="#84ACB3" transform="translate(331,270)"/>
<path d="M0 0 C3.57789864 0.57892251 6.33988176 1.51492479 9.51171875 3.2578125 C10.34775635 3.71542969 11.18379395 4.17304688 12.04516602 4.64453125 C13.35312134 5.37736328 13.35312134 5.37736328 14.6875 6.125 C15.58073975 6.62128906 16.47397949 7.11757813 17.39428711 7.62890625 C32.24256781 15.97352892 32.24256781 15.97352892 38 22 C33.25702833 21.46499527 30.00293525 20.14087228 25.90234375 17.7265625 C24.77119141 17.0665625 23.64003906 16.4065625 22.47460938 15.7265625 C21.2954594 15.02623275 20.1164239 14.32571024 18.9375 13.625 C17.7550535 12.93144498 16.57211458 12.23872878 15.38867188 11.546875 C12.25296301 9.70802234 9.12371846 7.85913395 6 6 C5.0726001 5.49388184 4.1452002 4.98776367 3.18969727 4.46630859 C1 3 1 3 0 0 Z " fill="#089CCE" transform="translate(131,494)"/>
<path d="M0 0 C4.50355116 0.60674029 8.12395769 2.4123619 12.0625 4.5625 C12.71718262 4.91602539 13.37186523 5.26955078 14.04638672 5.63378906 C22.09305521 10.0505724 30.07421331 14.94931271 37 21 C37 21.66 37 22.32 37 23 C33.09369334 21.54904763 29.6015128 19.72031599 26 17.62890625 C24.865625 16.97212891 23.73125 16.31535156 22.5625 15.63867188 C21.37497505 14.9466574 20.18747526 14.25459973 19 13.5625 C17.81267268 12.87405107 16.62517417 12.18589727 15.4375 11.49804688 C12.28823045 9.67111266 9.14071705 7.84159742 6 6 C5.071875 5.49460693 4.14375 4.98921387 3.1875 4.46850586 C1 3 1 3 0 0 Z " fill="#079BCC" transform="translate(53,449)"/>
<path d="M0 0 C1 3 1 3 -0.1171875 5.34765625 C-6.7950667 15.66126969 -14.63627878 24.07514847 -24 32 C-24 29 -24 29 -21.6875 26.625 C-20.800625 25.75875 -19.91375 24.8925 -19 24 C-18.54625 23.236875 -18.0925 22.47375 -17.625 21.6875 C-16.13534834 19.22384534 -14.60999211 17.37441688 -12.6875 15.25 C-9.48366554 11.68717352 -6.88213637 7.95041088 -4.359375 3.8828125 C-3 2 -3 2 0 0 Z " fill="#99C6CE" transform="translate(324,322)"/>
<path d="M0 0 C0.66 0.33 1.32 0.66 2 1 C-4.99483782 6.07719298 -12.18994201 10.58188767 -19.6875 14.875 C-21.79599603 16.09301786 -23.90406903 17.3117683 -26.01171875 18.53125 C-27.02927246 19.1190625 -28.04682617 19.706875 -29.09521484 20.3125 C-33.0853953 22.63054734 -37.0477583 24.99297457 -41 27.375 C-41.62221436 27.74995605 -42.24442871 28.12491211 -42.88549805 28.51123047 C-44.25778578 29.33951769 -45.62904105 30.16951525 -47 31 C-47.33 30.34 -47.66 29.68 -48 29 C-45.54622942 26.26720535 -42.8688304 24.6248682 -39.6875 22.8125 C-38.62015625 22.20083984 -37.5528125 21.58917969 -36.453125 20.95898438 C-35.31359375 20.31251953 -34.1740625 19.66605469 -33 19 C-31.23705868 17.99495639 -29.47482223 16.988685 -27.71264648 15.9822998 C-26.52760224 15.30567882 -25.3422169 14.62965488 -24.15649414 13.95422363 C-20.45963935 11.845577 -16.78509292 9.70300638 -13.125 7.53125 C-12.25230469 7.015625 -11.37960937 6.5 -10.48046875 5.96875 C-8.85451633 5.00598132 -7.23197414 4.03742468 -5.61328125 3.0625 C-3.77661766 1.98094586 -1.89246751 0.98064226 0 0 Z " fill="#99A2A7" transform="translate(489,425)"/>
<path d="M0 0 C0.66 0.33 1.32 0.66 2 1 C1.67 1.33 1.34 1.66 1 2 C1.66 2.66 2.32 3.32 3 4 C-0.76588875 6.14715048 -4.53788916 8.28300793 -8.31591797 10.40869141 C-9.59987763 11.13316751 -10.8821263 11.86068478 -12.16259766 12.59130859 C-14.0050061 13.64186733 -15.85332046 14.68128286 -17.703125 15.71875 C-18.81333008 16.34716797 -19.92353516 16.97558594 -21.06738281 17.62304688 C-24 19 -24 19 -28 19 C-26.65589074 14.96767223 -24.91793864 14.52470142 -21.25 12.4609375 C-20.67668945 12.13461334 -20.10337891 11.80828918 -19.51269531 11.47207642 C-17.67988054 10.43104735 -15.84030165 9.40272587 -14 8.375 C-12.16124733 7.33758265 -10.32395016 6.29764303 -8.48730469 5.25650024 C-6.82212801 4.3142515 -5.15332871 3.37841348 -3.484375 2.44287109 C-1.13476265 1.2202088 -1.13476265 1.2202088 0 0 Z " fill="#96BEC5" transform="translate(472,437)"/>
<path d="M0 0 C6.99329011 1.63367843 12.84500823 3.83237345 18 9 C19.21875 11.19140625 19.21875 11.19140625 20 13 C14.41991316 12.52195518 10.74119659 10.35840734 6.125 7.4375 C5.43664062 7.01275391 4.74828125 6.58800781 4.0390625 6.15039062 C2.35399048 5.1089225 0.67622969 4.05564084 -1 3 C-0.67 2.01 -0.34 1.02 0 0 Z " fill="#069BCC" transform="translate(17,427)"/>
<path d="M0 0 C0.99 0.33 1.98 0.66 3 1 C-1.60465116 4.8372093 -1.60465116 4.8372093 -4.125 5.875 C-6.95728716 7.5743723 -7.71563639 10.0459637 -9 13 C-9.66 12.67 -10.32 12.34 -11 12 C-11 11.34 -11 10.68 -11 10 C-12.46373047 10.86625 -12.46373047 10.86625 -13.95703125 11.75 C-15.24198889 12.50034023 -16.52715612 13.2503216 -17.8125 14 C-18.45509766 14.3815625 -19.09769531 14.763125 -19.75976562 15.15625 C-24.66015625 18 -24.66015625 18 -28 18 C-28 17.34 -28 16.68 -28 16 C-27.3294458 15.62190186 -26.6588916 15.24380371 -25.96801758 14.85424805 C-22.91578326 13.13269816 -19.86413646 11.41010942 -16.8125 9.6875 C-15.75740234 9.09259766 -14.70230469 8.49769531 -13.61523438 7.88476562 C-12.59365234 7.30791016 -11.57207031 6.73105469 -10.51953125 6.13671875 C-9.58214111 5.60780029 -8.64475098 5.07888184 -7.67895508 4.53393555 C-5.86511829 3.49535571 -4.08558048 2.39489538 -2.3425293 1.24145508 C-1.56949463 0.8317749 -0.79645996 0.42209473 0 0 Z " fill="#96A2A6" transform="translate(366,496)"/>
<path d="M0 0 C0 2.96693327 -0.07407744 5.18216836 -1 8 C-14.14193938 16.91429344 -32.75928014 17.64171452 -48 17 C-48 16.67 -48 16.34 -48 16 C-47.01644531 15.99742187 -46.03289062 15.99484375 -45.01953125 15.9921875 C-30.95845127 15.69334447 -16.44210938 12.80141495 -4 6 C-4 5.01 -4 4.02 -4 3 C-2 1.3125 -2 1.3125 0 0 Z " fill="#9BA5AA" transform="translate(290,355)"/>
<path d="M0 0 C0.66 0.33 1.32 0.66 2 1 C0.59579392 4.46089011 -0.8029296 5.80318257 -4.0625 7.578125 C-4.85914063 8.01640625 -5.65578125 8.4546875 -6.4765625 8.90625 C-7.30929687 9.3496875 -8.14203125 9.793125 -9 10.25 C-9.83273437 10.70890625 -10.66546875 11.1678125 -11.5234375 11.640625 C-17.70228795 15 -17.70228795 15 -20 15 C-20 13.68 -20 12.36 -20 11 C-16.7155241 9.13287101 -13.42136129 7.28355226 -10.125 5.4375 C-8.71927734 4.63795898 -8.71927734 4.63795898 -7.28515625 3.82226562 C-6.38925781 3.32275391 -5.49335938 2.82324219 -4.5703125 2.30859375 C-3.74289551 1.84251709 -2.91547852 1.37644043 -2.06298828 0.89624023 C-1.38220215 0.60048096 -0.70141602 0.30472168 0 0 Z " fill="#8EBAC2" transform="translate(303,535)"/>
<path d="M0 0 C5.10212873 1.49311122 9.4632345 3.71440885 14.0625 6.3125 C15.10374023 6.88000977 15.10374023 6.88000977 16.16601562 7.45898438 C20.44652732 9.86143681 23.6981217 12.36342838 27 16 C20.64402351 15.6416199 15.97078803 12.35935698 10.6875 9.125 C9.76904297 8.58230469 8.85058594 8.03960937 7.90429688 7.48046875 C1.12784924 3.38354771 1.12784924 3.38354771 0 0 Z " fill="#099CCC" transform="translate(100,476)"/>
<path d="M0 0 C0.66 0.33 1.32 0.66 2 1 C-0.05719173 5.89374016 -3.38292211 7.3438448 -7.875 9.8125 C-8.59558594 10.23208984 -9.31617188 10.65167969 -10.05859375 11.08398438 C-10.75855469 11.47521484 -11.45851563 11.86644531 -12.1796875 12.26953125 C-12.81632324 12.62635986 -13.45295898 12.98318848 -14.10888672 13.35083008 C-16.44099564 14.15138232 -17.70457538 13.79261197 -20 13 C-16.50904207 9.0246945 -12.43925015 6.72274091 -7.875 4.1875 C-7.14667969 3.76791016 -6.41835938 3.34832031 -5.66796875 2.91601562 C-3.81494731 1.87647402 -1.91035606 0.92998652 0 0 Z " fill="#91BFC7" transform="translate(355,505)"/>
<path d="M0 0 C0.66 0.33 1.32 0.66 2 1 C0.52922378 5.53489335 -3.05296427 7.11004087 -7 9.25 C-7.64195312 9.61351562 -8.28390625 9.97703125 -8.9453125 10.3515625 C-13.70453477 13 -13.70453477 13 -16 13 C-15.03728096 9.18923713 -14.07520651 8.05363994 -10.8125 5.7265625 C-9.55014521 5.010876 -8.27890333 4.31067709 -7 3.625 C-6.35804688 3.25761719 -5.71609375 2.89023437 -5.0546875 2.51171875 C-3.40919537 1.59946893 -1.70717391 0.79082321 0 0 Z " fill="#91BEC5" transform="translate(374,494)"/>
<path d="M0 0 C0.66 0.33 1.32 0.66 2 1 C0.94138551 4.32287327 -0.13106576 5.07902495 -3.1875 6.921875 C-4.45229401 7.54368796 -5.72343257 8.1527305 -7 8.75 C-7.96292969 9.22373047 -7.96292969 9.22373047 -8.9453125 9.70703125 C-13.69007035 12 -13.69007035 12 -16 12 C-15.04872709 8.18169625 -14.1850454 7.11928172 -10.8125 4.9453125 C-9.54976242 4.32186884 -8.27848998 3.71546726 -7 3.125 C-6.03707031 2.64546875 -6.03707031 2.64546875 -5.0546875 2.15625 C-3.40403659 1.36200375 -1.7039294 0.67238391 0 0 Z " fill="#94BEC5" transform="translate(271,553)"/>
<path d="M0 0 C0.66 0.33 1.32 0.66 2 1 C0.51219674 5.01706879 -1.67271349 6.31247123 -5.375 8.3125 C-6.33148438 8.84488281 -7.28796875 9.37726562 -8.2734375 9.92578125 C-11.14727583 11.05802414 -12.19191053 11.13787512 -15 10 C-12.0761589 6.81980317 -9.16598831 4.74648691 -5.375 2.6875 C-4.41335938 2.15511719 -3.45171875 1.62273438 -2.4609375 1.07421875 C-1.64882813 0.71972656 -0.83671875 0.36523438 0 0 Z " fill="#90BCC4" transform="translate(324,523)"/>
<path d="M0 0 C0.66 0.33 1.32 0.66 2 1 C0.53403275 4.9429464 -1.37308275 6.01834588 -5.125 7.75 C-6.49011719 8.39195312 -6.49011719 8.39195312 -7.8828125 9.046875 C-8.58148438 9.36140625 -9.28015625 9.6759375 -10 10 C-10.33 9.34 -10.66 8.68 -11 8 C-7.71644638 4.32241995 -4.37221763 2.18610882 0 0 Z " fill="#90C0C7" transform="translate(419,468)"/>
<path d="M0 0 C0.66 0.33 1.32 0.66 2 1 C0.94434467 4.28426103 -0.61660352 5.57151556 -3.5 7.25 C-7 9 -7 9 -9 9 C-9 7.68 -9 6.36 -9 5 C-7.54735962 4.1361871 -6.0876837 3.28419546 -4.625 2.4375 C-3.40683594 1.72400391 -3.40683594 1.72400391 -2.1640625 0.99609375 C-1.44992187 0.66738281 -0.73578125 0.33867187 0 0 Z " fill="#97C3CA" transform="translate(393,483)"/>
<path d="M0 0 C0 2.96704116 -0.06457886 5.18478517 -1 8 C-3.28515625 9.36328125 -3.28515625 9.36328125 -6.0625 10.3125 C-6.98160156 10.63863281 -7.90070313 10.96476562 -8.84765625 11.30078125 C-9.55792969 11.53152344 -10.26820313 11.76226562 -11 12 C-10 9 -10 9 -6.9375 7.3125 C-5.968125 6.879375 -4.99875 6.44625 -4 6 C-4 5.01 -4 4.02 -4 3 C-2 1.3125 -2 1.3125 0 0 Z " fill="#8C9EA2" transform="translate(290,355)"/>
<path d="M0 0 C0.66 0.33 1.32 0.66 2 1 C0.29592618 2.27653929 -1.41347351 3.5459704 -3.125 4.8125 C-4.07632812 5.52019531 -5.02765625 6.22789062 -6.0078125 6.95703125 C-8.91216966 8.94003229 -11.82158209 10.50510612 -15 12 C-15 11.01 -15 10.02 -15 9 C-12.56573663 7.25870211 -10.20464906 5.74224225 -7.625 4.25 C-6.92632812 3.82589844 -6.22765625 3.40179688 -5.5078125 2.96484375 C-3.71233921 1.90482394 -1.8590257 0.9441344 0 0 Z " fill="#0FA7E5" transform="translate(23,132)"/>
<path d="M0 0 C0.66 0.33 1.32 0.66 2 1 C0.55527654 4.80881639 -1.32603071 6.29742886 -5 8 C-5.99 7.67 -6.98 7.34 -8 7 C-6.88424427 3.65273281 -6.48655378 3.37920252 -3.5625 1.75 C-2.386875 1.1725 -1.21125 0.595 0 0 Z " fill="#9EC6CD" transform="translate(452,449)"/>
<path d="M0 0 C0.66 0.33 1.32 0.66 2 1 C1.67 1.33 1.34 1.66 1 2 C1.66 2.66 2.32 3.32 3 4 C-3.625 8 -3.625 8 -7 8 C-6.01347016 4.68167234 -5.31268497 3.23451373 -2.5 1.125 C-1.675 0.75375 -0.85 0.3825 0 0 Z " fill="#89B3B9" transform="translate(472,437)"/>
<path d="M0 0 C0.66 0.33 1.32 0.66 2 1 C1.03558469 3.41103827 0.31202953 4.77404758 -1.8125 6.3125 C-4.54191176 7.17031512 -6.27678692 6.75644808 -9 6 C-6.12050853 3.76039553 -3.23257974 1.70135776 0 0 Z " fill="#9BC7CF" transform="translate(433,460)"/>
<path d="M0 0 C4.99275057 1.27721526 7.57611908 3.17330957 11 7 C10.01 7.495 10.01 7.495 9 8 C6.8359375 7.00390625 6.8359375 7.00390625 4.375 5.5625 C3.55773437 5.08941406 2.74046875 4.61632812 1.8984375 4.12890625 C1.27195313 3.75636719 0.64546875 3.38382813 0 3 C0 2.01 0 1.02 0 0 Z " fill="#0B9CCC" transform="translate(196,531)"/>
<path d="M0 0 C7.63076923 1.47692308 7.63076923 1.47692308 9.5 4.125 C9.665 4.74375 9.83 5.3625 10 6 C6.38238619 5.67112602 4.44334967 5.37334709 1.625 3 C0 1 0 1 0 0 Z " fill="#059BCC" transform="translate(173,518)"/>
<path d="M0 0 C0.66 0.33 1.32 0.66 2 1 C2 1.99 2 2.98 2 4 C-1.96 5.98 -1.96 5.98 -6 8 C-6 5 -6 5 -4.6875 3.4375 C-3 2 -3 2 0 0 Z " fill="#8BB6BE" transform="translate(443,454)"/>
<path d="M0 0 C0.99 0.33 1.98 0.66 3 1 C1.86500606 4.29148243 1.00716624 4.9959869 -2.125 6.75 C-3.548125 7.36875 -3.548125 7.36875 -5 8 C-5 5 -5 5 -2.5 2.3125 C-1.675 1.549375 -0.85 0.78625 0 0 Z " fill="#9AC4CB" transform="translate(295,352)"/>
<path d="M0 0 C2.31 0.66 4.62 1.32 7 2 C7 2.66 7 3.32 7 4 C9.31 4 11.62 4 14 4 C12 6 12 6 9.8125 6.4375 C5.78362367 5.8107859 3.03097656 3.66411484 0 1 C0 0.67 0 0.34 0 0 Z " fill="#9BA3A7" transform="translate(239,558)"/>
<path d="M0 0 C0.66 0.33 1.32 0.66 2 1 C2 1.99 2 2.98 2 4 C-0.57213134 5.61949011 -1.67669159 6.04408751 -4.75 5.625 C-5.4925 5.41875 -6.235 5.2125 -7 5 C-4.702779 3.25728062 -2.40133271 1.60088848 0 0 Z " fill="#9AC4CB" transform="translate(405,476)"/>
<path d="M0 0 C0 3 0 3 -2.375 5.4375 C-3.24125 6.283125 -4.1075 7.12875 -5 8 C-6.29519995 10.16620544 -6.29519995 10.16620544 -7 12 C-7.66 11.34 -8.32 10.68 -9 10 C-6.68116787 5.49115974 -3.93548431 3.06093224 0 0 Z " fill="#7BA6AC" transform="translate(305,344)"/>
<path d="M0 0 C0.66 0.33 1.32 0.66 2 1 C2 1.99 2 2.98 2 4 C-0.35438733 5.42944945 -1.48032433 6.08661261 -4.25 5.625 C-4.8275 5.41875 -5.405 5.2125 -6 5 C-2.25 1.125 -2.25 1.125 0 0 Z " fill="#94C6CD" transform="translate(315,528)"/>
<path d="M0 0 C0.66 0.33 1.32 0.66 2 1 C0.9024777 3.99324263 0.32317108 4.84610901 -2.625 6.25 C-3.40875 6.4975 -4.1925 6.745 -5 7 C-5 4 -5 4 -3.625 2.375 C-2 1 -2 1 0 0 Z " fill="#9AC4CB" transform="translate(280,548)"/>
<path d="M0 0 C-2.68841859 2.25245881 -4.64641875 3.88213958 -8 5 C-7.625 2.5625 -7.625 2.5625 -7 0 C-4.3333581 -1.33332095 -2.83319697 -0.67102033 0 0 Z " fill="#7FA4AB" transform="translate(402,482)"/>
<path d="M0 0 C-2.68841859 2.25245881 -4.64641875 3.88213958 -8 5 C-7.625 2.5625 -7.625 2.5625 -7 0 C-4.3333581 -1.33332095 -2.83319697 -0.67102033 0 0 Z " fill="#7EA3AA" transform="translate(428,467)"/>
<path d="M0 0 C0.66 0.33 1.32 0.66 2 1 C1.25 2.9375 1.25 2.9375 0 5 C-2.125 5.75 -2.125 5.75 -4 6 C-4 4.68 -4 3.36 -4 2 C-2.125 0.9375 -2.125 0.9375 0 0 Z " fill="#9BC5CC" transform="translate(381,490)"/>
<path d="M0 0 C0.66 0.33 1.32 0.66 2 1 C1.25 2.9375 1.25 2.9375 0 5 C-2.125 5.75 -2.125 5.75 -4 6 C-2.25 1.125 -2.25 1.125 0 0 Z " fill="#9AC6CD" transform="translate(355,505)"/>
<path d="M0 0 C0.66 0.33 1.32 0.66 2 1 C1.1875 2.9375 1.1875 2.9375 0 5 C-0.99 5.33 -1.98 5.66 -3 6 C-3.33 5.34 -3.66 4.68 -4 4 C-2.68 2.68 -1.36 1.36 0 0 Z " fill="#9CC4CB" transform="translate(419,468)"/>
<path d="M0 0 C0.66 0.33 1.32 0.66 2 1 C1.25 2.9375 1.25 2.9375 0 5 C-2.125 5.75 -2.125 5.75 -4 6 C-2.25 1.125 -2.25 1.125 0 0 Z " fill="#9AC7CE" transform="translate(303,535)"/>
<path d="M0 0 C0.66 0.33 1.32 0.66 2 1 C1.1875 2.9375 1.1875 2.9375 0 5 C-0.99 5.33 -1.98 5.66 -3 6 C-3 3 -3 3 -1.5 1.3125 C-0.7575 0.6628125 -0.7575 0.6628125 0 0 Z " fill="#9CC3CB" transform="translate(374,494)"/>
</svg>
