<svg width="78" height="23" viewBox="0 0 78 23" fill="none" xmlns="http://www.w3.org/2000/svg">
<path d="M16.2578 18L21.5312 3.71289H24.2461L29.5586 18H26.7852L23.1426 7.70703C23.0645 7.48568 22.9993 7.27409 22.9473 7.07227C22.8952 6.87044 22.8496 6.66862 22.8105 6.4668H22.7324C22.6868 6.66862 22.638 6.87044 22.5859 7.07227C22.5339 7.27409 22.4688 7.48568 22.3906 7.70703L18.7578 18H16.2578ZM19.002 14.6895L19.627 12.7168H26.0332L26.6582 14.6895H19.002ZM30.1348 14.0449V13.752H32.7617V13.9961C32.7617 14.7513 33.0026 15.3177 33.4844 15.6953C33.9661 16.0729 34.64 16.2617 35.5059 16.2617C36.3717 16.2617 37.0326 16.0794 37.4883 15.7148C37.9505 15.3503 38.1816 14.8685 38.1816 14.2695C38.1816 13.6836 37.9603 13.2246 37.5176 12.8926C37.0749 12.554 36.1634 12.1927 34.7832 11.8086C33.2858 11.3919 32.1758 10.8613 31.4531 10.2168C30.7305 9.57227 30.3691 8.67708 30.3691 7.53125C30.3691 6.32682 30.8216 5.35677 31.7266 4.62109C32.6315 3.87891 33.862 3.50781 35.418 3.50781C36.9674 3.50781 38.2077 3.88867 39.1387 4.65039C40.0697 5.4056 40.5352 6.41146 40.5352 7.66797V7.92188H37.9375V7.70703C37.9375 7.05599 37.7259 6.5319 37.3027 6.13477C36.8796 5.73763 36.2546 5.53906 35.4277 5.53906C34.5944 5.53906 33.9824 5.70182 33.5918 6.02734C33.2012 6.35286 33.0059 6.79557 33.0059 7.35547C33.0059 7.88932 33.2174 8.30273 33.6406 8.5957C34.0638 8.88867 34.9688 9.22721 36.3555 9.61133C37.8268 10.028 38.9368 10.5749 39.6855 11.252C40.4342 11.9225 40.8086 12.873 40.8086 14.1035C40.8086 15.3926 40.3268 16.4115 39.3633 17.1602C38.4062 17.9023 37.1237 18.2734 35.5156 18.2734C33.9206 18.2734 32.625 17.9089 31.6289 17.1797C30.6328 16.444 30.1348 15.3991 30.1348 14.0449ZM42.4395 11.3301V10.4512C42.4395 8.17904 43.0091 6.45378 44.1484 5.27539C45.2878 4.09701 46.7559 3.50781 48.5527 3.50781C50.2845 3.50781 51.6484 3.9668 52.6445 4.88477C53.6471 5.79622 54.1484 6.96484 54.1484 8.39062V8.6543H51.5215V8.3418C51.5215 7.47591 51.2741 6.79557 50.7793 6.30078C50.291 5.79948 49.5456 5.54883 48.543 5.54883C47.5273 5.54883 46.707 5.91667 46.082 6.65234C45.457 7.38802 45.1445 8.56315 45.1445 10.1777V11.6035C45.1445 13.1139 45.4538 14.263 46.0723 15.0508C46.6908 15.8385 47.5241 16.2324 48.5723 16.2324C49.5228 16.2324 50.2357 15.9753 50.7109 15.4609C51.1927 14.9466 51.4596 14.263 51.5117 13.4102L51.5215 13.1367H54.1484L54.1387 13.4297C54.0671 14.8229 53.5527 15.9785 52.5957 16.8965C51.6387 17.8145 50.291 18.2734 48.5527 18.2734C46.7363 18.2734 45.2617 17.681 44.1289 16.4961C43.0026 15.3047 42.4395 13.5827 42.4395 11.3301ZM56.2578 18V3.78125H65.4961V5.83203H58.8555V9.68945H64.6074V11.6816H58.8555V15.9688H65.6035V18H56.2578ZM67.6641 18V3.78125H76.9023V5.83203H70.2617V9.68945H76.0137V11.6816H70.2617V15.9688H77.0098V18H67.6641Z" fill="#009DFF"/>
<rect y="11" width="9.91469" height="9.91469" rx="3" transform="rotate(-45 0 11)" fill="#28DEEE"/>
</svg>
